#!OML:ASF E:\Style6\Style6.ASF
:FULLY-SPECIFIED
:DEGREES
2386
root 0.336986 18.2902 0.678188 10.4002 -3.34547 -3.52591
lowerback -4.93783 -0.169292 2.783
upperback -3.09821 -0.34374 2.75333
thorax -0.417526 -0.188121 1.25179
lowerneck -9.16005 0.555993 3.6189
upperneck 11.3535 1.00244 -6.03934
head 4.95746 0.25509 -2.40145
rclavicle -8.51047e-015 0
rhumerus -40.01 9.96439 -85.2493
rradius 58.416
rwrist 19.0523
rhand -8.35538 9.72516
rfingers 7.12502
rthumb 17.5669 -19.5012
lclavicle -8.51047e-015 0
lhumerus -40.4135 -15.1098 91.6149
lradius 58.9996
lwrist -1.41682
lhand -14.9129 20.1066
lfingers 7.12502
lthumb 11.2488 49.785
rfemur 0 0 0
rtibia 0
rfoot 0 0
rtoes 0
lfemur -12.5849 -25.7651 -12.829
ltibia 17.2323
lfoot -8.63281 29.38
ltoes -6.13488
2387
root 0.335387 18.2898 0.675971 10.3934 -3.37363 -3.40299
lowerback -4.95273 -0.146389 2.634
upperback -3.08466 -0.308413 2.72871
thorax -0.394359 -0.1684 1.31132
lowerneck -9.20317 0.519058 3.51717
upperneck 11.3092 0.95345 -5.95533
head 4.94793 0.231892 -2.36149
rclavicle 9.34288e-015 -2.10712e-014
rhumerus -40.0595 11.5839 -85.2227
rradius 60.3392
rwrist 20.9075
rhand -8.69199 10.7045
rfingers 7.12502
rthumb 17.2429 -18.5505
lclavicle 9.34288e-015 -2.10712e-014
lhumerus -40.7221 -17.1238 91.814
lradius 61.4086
lwrist -1.93211
lhand -15.4797 19.7819
lfingers 7.12502
lthumb 10.7021 49.4893
rfemur 0 0 0
rtibia 0
rfoot 0 0
rtoes 0
lfemur -12.563 -25.8251 -12.9502
ltibia 17.1567
lfoot -8.60121 29.4415
ltoes -5.9835
2388
root 0.335095 18.2886 0.673722 10.3767 -3.39727 -3.30036
lowerback -4.94968 -0.12737 2.5434
upperback -3.0773 -0.279458 2.68995
thorax -0.388125 -0.152928 1.32342
lowerneck -9.14997 0.476195 3.47578
upperneck 11.1711 0.891341 -5.91219
head 4.89304 0.204487 -2.34425
rclavicle 2.04997e-015 3.97569e-016
rhumerus -40.1134 13.2757 -85.1885
rradius 62.3389
rwrist 22.6899
rhand -9.01463 11.3686
rfingers 7.12502
rthumb 16.9324 -17.9133
lclavicle 2.04997e-015 3.97569e-016
lhumerus -40.971 -19.1127 91.9252
lradius 63.7765
lwrist -2.41011
lhand -16.0514 19.5108
lfingers 7.12502
lthumb 10.1506 49.2459
rfemur 0 0 0
rtibia 0
rfoot 0 0
rtoes 0
lfemur -12.4862 -25.8493 -13.0727
ltibia 17.029
lfoot -8.49045 29.5021
ltoes -6.07758
2389
root 0.336202 18.2884 0.671474 10.3368 -3.34821 -3.29337
lowerback -4.936 -0.124658 2.57278
upperback -3.07145 -0.276528 2.67648
thorax -0.389976 -0.151928 1.29325
lowerneck -9.04283 0.434983 3.43987
upperneck 11.0306 0.831846 -5.86901
head 4.82849 0.179386 -2.32754
rclavicle 1.57785e-015 -2.14687e-014
rhumerus -40.1981 15.0565 -85.1201
rradius 64.4504
rwrist 24.2787
rhand -9.66084 11.8135
rfingers 7.12502
rthumb 16.3102 -17.5206
lclavicle 1.57785e-015 -2.14687e-014
lhumerus -41.1998 -21.1155 91.932
lradius 66.1704
lwrist -3.15993
lhand -16.2787 19.5544
lfingers 7.12502
lthumb 9.93128 49.3001
rfemur 0 0 0
rtibia 0
rfoot 0 0
rtoes 0
lfemur -12.3918 -25.8337 -13.0972
ltibia 16.9304
lfoot -8.63923 29.4156
ltoes -5.56675
2390
root 0.335787 18.2878 0.668133 10.3074 -3.2978 -3.25466
lowerback -4.91478 -0.121664 2.53199
upperback -3.07873 -0.269583 2.65728
thorax -0.409124 -0.148178 1.29672
lowerneck -8.9556 0.419397 3.46322
upperneck 10.9186 0.804171 -5.86327
head 4.77804 0.169423 -2.33037
rclavicle 1.3741e-014 1.27222e-014
rhumerus -40.2459 16.8672 -84.9837
rradius 66.5804
rwrist 25.7133
rhand -10.217 12.1555
rfingers 7.12502
rthumb 15.7747 -17.2217
lclavicle 1.3741e-014 1.27222e-014
lhumerus -41.4606 -23.2156 91.8535
lradius 68.6285
lwrist -4.06502
lhand -16.598 19.5181
lfingers 7.12502
lthumb 9.62319 49.2783
rfemur 0 0 0
rtibia 0
rfoot 0 0
rtoes 0
lfemur -12.3501 -25.8541 -13.1353
ltibia 16.87
lfoot -8.639 29.3833
ltoes -5.61349
2391
root 0.334527 18.2888 0.665686 10.3079 -3.27211 -3.22414
lowerback -4.95152 -0.101271 2.49278
upperback -3.07246 -0.242604 2.63721
thorax -0.382146 -0.134096 1.29912
lowerneck -8.92294 0.407407 3.48889
upperneck 10.8182 0.778914 -5.84568
head 4.74044 0.160546 -2.32993
rclavicle -5.09386e-015 4.37326e-015
rhumerus -40.135 18.7313 -84.7565
rradius 68.5905
rwrist 27.0341
rhand -10.6518 12.5444
rfingers 7.12502
rthumb 15.3559 -16.8654
lclavicle -5.09386e-015 4.37326e-015
lhumerus -41.6789 -25.3238 91.6924
lradius 71.0989
lwrist -4.98257
lhand -16.9861 19.1531
lfingers 7.12502
lthumb 9.24871 48.9303
rfemur 0 0 0
rtibia 0
rfoot 0 0
rtoes 0
lfemur -12.37 -25.9151 -13.1466
ltibia 16.8649
lfoot -8.64504 29.4213
ltoes -5.53929
2392
root 0.334437 18.2895 0.664282 10.307 -3.24035 -3.17496
lowerback -4.99669 -0.105304 2.46198
upperback -3.06375 -0.248937 2.61439
thorax -0.34789 -0.136792 1.29246
lowerneck -8.93632 0.410177 3.49467
upperneck 10.7762 0.778188 -5.83191
head 4.72975 0.161443 -2.32635
rclavicle -9.83984e-015 1.35174e-014
rhumerus -39.9184 20.6919 -84.4561
rradius 70.5224
rwrist 28.2766
rhand -11.2975 12.9366
rfingers 7.12502
rthumb 14.7339 -16.5198
lclavicle -9.83984e-015 1.35174e-014
lhumerus -41.7429 -27.2912 91.3776
lradius 73.4627
lwrist -6.0867
lhand -17.5486 18.5173
lfingers 7.12502
lthumb 8.706 48.3177
rfemur 0 0 0
rtibia 0
rfoot 0 0
rtoes 0
lfemur -12.3826 -25.9575 -13.1852
ltibia 16.8464
lfoot -8.61896 29.425
ltoes -5.54694
2393
root 0.333326 18.2895 0.661589 10.3051 -3.17181 -3.2067
lowerback -5.01959 -0.132572 2.47835
upperback -3.06542 -0.286956 2.64861
thorax -0.336662 -0.155694 1.3167
lowerneck -8.98694 0.421929 3.45154
upperneck 10.8469 0.801169 -5.82672
head 4.761 0.169929 -2.31676
rclavicle -8.74653e-015 3.73715e-014
rhumerus -39.6895 22.7553 -84.0331
rradius 72.6168
rwrist 29.2725
rhand -11.8079 13.1042
rfingers 7.12502
rthumb 14.2421 -16.3875
lclavicle -8.74653e-015 3.73715e-014
lhumerus -41.7413 -29.2678 91.0268
lradius 75.7539
lwrist -7.04856
lhand -18.3133 18.3736
lfingers 7.12502
lthumb 7.96799 48.2034
rfemur 0 0 0
rtibia 0
rfoot 0 0
rtoes 0
lfemur -12.4027 -25.9272 -13.1282
ltibia 16.8379
lfoot -8.63333 29.3536
ltoes -5.52852
2394
root 0.332199 18.29 0.659387 10.284 -3.11683 -3.16971
lowerback -4.98923 -0.15044 2.42324
upperback -3.09844 -0.305972 2.65096
thorax -0.387077 -0.16485 1.34934
lowerneck -8.99265 0.418527 3.45089
upperneck 10.9326 0.803919 -5.85827
head 4.78851 0.168463 -2.32699
rclavicle 3.55328e-015 5.56597e-015
rhumerus -39.4553 24.7169 -83.5101
rradius 74.7845
rwrist 30.1133
rhand -12.2073 13.1648
rfingers 7.12502
rthumb 13.8572 -16.3536
lclavicle 3.55328e-015 5.56597e-015
lhumerus -41.7864 -31.2763 90.6181
lradius 78.1073
lwrist -8.09323
lhand -19.0437 18.8125
lfingers 7.12502
lthumb 7.26294 48.6679
rfemur 0 0 0
rtibia 0
rfoot 0 0
rtoes 0
lfemur -12.4202 -25.907 -13.1603
ltibia 16.877
lfoot -8.66812 29.2778
ltoes -5.37204
2395
root 0.330282 18.2918 0.655521 10.2226 -3.0365 -3.12742
lowerback -4.90315 -0.175905 2.3646
upperback -3.12116 -0.332985 2.64646
thorax -0.457829 -0.178048 1.37675
lowerneck -8.94325 0.412771 3.4741
upperneck 10.9429 0.800644 -5.90858
head 4.7834 0.165318 -2.34669
rclavicle 8.54774e-015 -6.75868e-015
rhumerus -39.0907 26.5554 -82.8769
rradius 76.8577
rwrist 30.9394
rhand -13.2364 13.3422
rfingers 7.12502
rthumb 12.8653 -16.2413
lclavicle 8.54774e-015 -6.75868e-015
lhumerus -41.7042 -33.1506 90.0483
lradius 80.3897
lwrist -9.21645
lhand -19.9108 18.822
lfingers 7.12502
lthumb 6.42591 48.7045
rfemur 0 0 0
rtibia 0
rfoot 0 0
rtoes 0
lfemur -12.4336 -25.9299 -13.201
ltibia 16.9384
lfoot -8.45029 29.2377
ltoes -5.36822
2396
root 0.328782 18.2922 0.647587 10.246 -2.87421 -3.24134
lowerback -4.8616 -0.205296 2.48473
upperback -3.16768 -0.373303 2.69387
thorax -0.529326 -0.200036 1.35691
lowerneck -8.92344 0.423274 3.45436
upperneck 10.9678 0.819768 -5.9138
head 4.78863 0.173641 -2.34394
rclavicle 1.43125e-014 -1.74931e-014
rhumerus -38.6165 28.3019 -82.1081
rradius 78.8543
rwrist 31.7019
rhand -14.4476 13.5313
rfingers 7.12502
rthumb 11.6975 -16.1222
lclavicle 1.43125e-014 -1.74931e-014
lhumerus -41.4052 -34.9943 89.3404
lradius 82.502
lwrist -10.2569
lhand -20.663 18.4974
lfingers 7.12502
lthumb 5.69975 48.4008
rfemur 0 0 0
rtibia 0
rfoot 0 0
rtoes 0
lfemur -12.5708 -25.8864 -13.0067
ltibia 16.9849
lfoot -8.21722 29.0929
ltoes -5.28427
2397
root 0.327017 18.2919 0.644197 10.2806 -2.72632 -3.3038
lowerback -4.88633 -0.237904 2.55799
upperback -3.22104 -0.418644 2.71882
thorax -0.570775 -0.223977 1.33982
lowerneck -8.93467 0.452483 3.45216
upperneck 11.0681 0.862653 -5.90653
head 4.82344 0.194001 -2.33924
rclavicle -3.96327e-015 3.37934e-014
rhumerus -38.1581 30.0197 -81.2383
rradius 80.9442
rwrist 32.4255
rhand -14.9045 13.6316
rfingers 7.12502
rthumb 11.2568 -16.0463
lclavicle -3.96327e-015 3.37934e-014
lhumerus -40.9765 -36.8023 88.3836
lradius 84.6647
lwrist -11.5198
lhand -21.0147 18.2729
lfingers 7.12502
lthumb 5.36011 48.1851
rfemur 0 0 0
rtibia 0
rfoot 0 0
rtoes 0
lfemur -12.6692 -25.8457 -12.8789
ltibia 17.0267
lfoot -8.29072 28.9377
ltoes -5.69716
2398
root 0.32372 18.2905 0.64555 10.3483 -2.76662 -3.33356
lowerback -4.95768 -0.210345 2.54673
upperback -3.30382 -0.381658 2.73332
thorax -0.616335 -0.205729 1.36278
lowerneck -8.93975 0.464827 3.45532
upperneck 11.2503 0.88827 -5.92137
head 4.88162 0.204082 -2.34412
rclavicle 1.90088e-015 -1.59028e-015
rhumerus -37.7252 31.6532 -80.2798
rradius 83.1163
rwrist 33.074
rhand -15.0015 13.6787
rfingers 7.12502
rthumb 11.1633 -16.0044
lclavicle 1.90088e-015 -1.59028e-015
lhumerus -40.5701 -38.4711 87.3509
lradius 86.8709
lwrist -12.8024
lhand -21.3183 18.0364
lfingers 7.12502
lthumb 5.067 47.9558
rfemur 0 0 0
rtibia 0
rfoot 0 0
rtoes 0
lfemur -12.7428 -25.7596 -12.8209
ltibia 17.0763
lfoot -8.4034 28.9085
ltoes -6.15636
